<svg width="30" height="30" viewBox="0 0 30 30" fill="none" xmlns="http://www.w3.org/2000/svg">
<path fill-rule="evenodd" clip-rule="evenodd" d="M15 0C6.71575 0 0 6.71566 0 15C0 23.2842 6.71575 30 15 30C23.2843 30 30 23.2842 30 15C30 6.71566 23.2843 0 15 0ZM15 27C8.38321 27 3 21.6168 3 15C3 8.38321 8.38321 3 15 3C21.6169 3 27 8.38321 27 15C27 21.6168 21.6169 27 15 27ZM16.8783 9C16.8783 10.0876 16.0865 10.875 15.0152 10.875C13.9007 10.875 13.1283 10.0876 13.1283 8.9792C13.1283 7.91393 13.9216 7.125 15.0152 7.125C16.0865 7.125 16.8783 7.91393 16.8783 9ZM13.5033 13.5H16.5033V22.5H13.5033V13.5Z" fill="white"/>
</svg>
