<svg width="31" height="30" viewBox="0 0 31 30" fill="none" xmlns="http://www.w3.org/2000/svg">
<path d="M23.6818 8.57143H30.5V11.4286H23.6818V8.57143ZM20.9545 15.7143H30.5V18.5714H20.9545V15.7143ZM25.0455 22.8571H30.5V25.7143H25.0455V22.8571ZM0.5 30C0.5 26.969 1.64935 24.0621 3.6952 21.9188C5.74105 19.7755 8.51582 18.5714 11.4091 18.5714C14.3024 18.5714 17.0771 19.7755 19.123 21.9188C21.1688 24.0621 22.3182 26.969 22.3182 30H19.5909C19.5909 27.7267 18.7289 25.5465 17.1945 23.9391C15.6601 22.3316 13.579 21.4286 11.4091 21.4286C9.23914 21.4286 7.15806 22.3316 5.62367 23.9391C4.08928 25.5465 3.22727 27.7267 3.22727 30H0.5ZM11.4091 17.1429C6.88864 17.1429 3.22727 13.3071 3.22727 8.57143C3.22727 3.83571 6.88864 0 11.4091 0C15.9295 0 19.5909 3.83571 19.5909 8.57143C19.5909 13.3071 15.9295 17.1429 11.4091 17.1429ZM11.4091 14.2857C14.4227 14.2857 16.8636 11.7286 16.8636 8.57143C16.8636 5.41429 14.4227 2.85714 11.4091 2.85714C8.39545 2.85714 5.95455 5.41429 5.95455 8.57143C5.95455 11.7286 8.39545 14.2857 11.4091 14.2857Z" fill="white"/>
</svg>
