<svg width="32" height="30" viewBox="0 0 32 30" fill="none" xmlns="http://www.w3.org/2000/svg">
<path d="M29.7777 9.0251L19.4445 1.14453C18.4972 0.407478 17.2709 0 16.0001 0C14.7292 0 13.5029 0.407478 12.5556 1.14453L2.22237 9.0251C1.67534 9.4507 1.23882 9.9728 0.941862 10.5566C0.644904 11.1405 0.49433 11.7726 0.500163 12.411V25.5054C0.500163 26.6974 1.0445 27.8407 2.01343 28.6836C2.98237 29.5265 4.29652 30 5.66679 30H26.3333C27.7036 30 29.0177 29.5265 29.9867 28.6836C30.9556 27.8407 31.4999 26.6974 31.4999 25.5054V12.3961C31.5033 11.7602 31.3516 11.1309 31.0547 10.5498C30.7578 9.9687 30.3226 9.44903 29.7777 9.0251ZM19.4445 27.0036H12.5556V19.5125C12.5556 19.1152 12.7371 18.7341 13.0601 18.4532C13.383 18.1722 13.8211 18.0143 14.2778 18.0143H17.7223C18.179 18.0143 18.6171 18.1722 18.9401 18.4532C19.263 18.7341 19.4445 19.1152 19.4445 19.5125V27.0036ZM28.0555 25.5054C28.0555 25.9027 27.8741 26.2838 27.5511 26.5648C27.2281 26.8457 26.7901 27.0036 26.3333 27.0036H22.8889V19.5125C22.8889 18.3205 22.3446 17.1773 21.3756 16.3344C20.4067 15.4915 19.0925 15.0179 17.7223 15.0179H14.2778C12.9076 15.0179 11.5934 15.4915 10.6245 16.3344C9.65555 17.1773 9.11121 18.3205 9.11121 19.5125V27.0036H5.66679C5.21003 27.0036 4.77198 26.8457 4.44901 26.5648C4.12603 26.2838 3.94458 25.9027 3.94458 25.5054V12.3961C3.94489 12.1833 3.99727 11.9731 4.09823 11.7794C4.1992 11.5856 4.34643 11.4128 4.53014 11.2724L14.8634 3.40682C15.1777 3.16663 15.5817 3.03417 16.0001 3.03417C16.4184 3.03417 16.8224 3.16663 17.1367 3.40682L27.47 11.2724C27.6537 11.4128 27.8009 11.5856 27.9019 11.7794C28.0028 11.9731 28.0552 12.1833 28.0555 12.3961V25.5054Z" fill="white"/>
</svg>
